<svg width="300" height="300" viewBox="0 0 300 300" fill="none" xmlns="http://www.w3.org/2000/svg">
<path d="M300 0H0V300H300V0Z" fill="none"/>
<path d="M258 30H42C29.8497 30 20 39.8497 20 52V68C20 80.1503 29.8497 90 42 90H258C270.15 90 280 80.1503 280 68V52C280 39.8497 270.15 30 258 30Z" fill="#D6A86D"/>
<path d="M258 30H42C29.8497 30 20 39.8497 20 52V68C20 80.1503 29.8497 90 42 90H258C270.15 90 280 80.1503 280 68V52C280 39.8497 270.15 30 258 30Z" stroke="#D6A86D"/>
<path d="M258 210H42C29.8497 210 20 219.85 20 232V248C20 260.15 29.8497 270 42 270H258C270.15 270 280 260.15 280 248V232C280 219.85 270.15 210 258 210Z" fill="#D6A86D"/>
<path d="M258 210H42C29.8497 210 20 219.85 20 232V248C20 260.15 29.8497 270 42 270H258C270.15 270 280 260.15 280 248V232C280 219.85 270.15 210 258 210Z" stroke="#D6A86D"/>
<path d="M258 120H42C29.8497 120 20 129.85 20 142V158C20 170.15 29.8497 180 42 180H258C270.15 180 280 170.15 280 158V142C280 129.85 270.15 120 258 120Z" fill="#D6A86D"/>
<path d="M258 120H42C29.8497 120 20 129.85 20 142V158C20 170.15 29.8497 180 42 180H258C270.15 180 280 170.15 280 158V142C280 129.85 270.15 120 258 120Z" stroke="#D6A86D"/>
</svg>
